<svg width="48" height="47" viewBox="0 0 48 47" fill="none" xmlns="http://www.w3.org/2000/svg">
<path fill-rule="evenodd" clip-rule="evenodd" d="M32.6252 29.6464C23.6012 29.6464 16.3126 22.3288 16.3126 13.3337C16.3126 22.3288 8.99508 29.6464 0 29.6464C8.99508 29.6464 16.3126 36.935 16.3126 45.9301C16.3126 36.935 23.6012 29.6464 32.6252 29.6464Z" fill="url(#paint0_linear_60_5236)"/>
<path fill-rule="evenodd" clip-rule="evenodd" d="M47.6862 38.0628C42.7404 38.0628 38.749 34.0425 38.749 29.1256C38.749 34.0425 34.7287 38.0628 29.8118 38.0628C34.7287 38.0628 38.749 42.0542 38.749 47.0001C38.749 42.0542 42.7404 38.0628 47.6862 38.0628Z" fill="url(#paint1_linear_60_5236)"/>
<path fill-rule="evenodd" clip-rule="evenodd" d="M42.5386 10.8751C36.5226 10.8751 31.6635 6.016 31.6635 0C31.6635 6.016 26.8045 10.8751 20.7885 10.8751C26.8045 10.8751 31.6635 15.7342 31.6635 21.7502C31.6635 15.7342 36.5226 10.8751 42.5386 10.8751Z" fill="url(#paint2_linear_60_5236)"/>
<defs>
<linearGradient id="paint0_linear_60_5236" x1="-0.0363577" y1="15.6757" x2="36.7451" y2="23.1661" gradientUnits="userSpaceOnUse">
<stop stop-color="#0052FF"/>
<stop offset="1" stop-color="#03A9F4"/>
</linearGradient>
<linearGradient id="paint1_linear_60_5236" x1="29.7918" y1="30.4099" x2="49.9448" y2="34.5103" gradientUnits="userSpaceOnUse">
<stop stop-color="#0052FF"/>
<stop offset="1" stop-color="#03A9F4"/>
</linearGradient>
<linearGradient id="paint2_linear_60_5236" x1="20.7642" y1="1.56272" x2="45.2869" y2="6.55219" gradientUnits="userSpaceOnUse">
<stop stop-color="#0052FF"/>
<stop offset="1" stop-color="#03A9F4"/>
</linearGradient>
</defs>
</svg>
